<svg width="23" height="29" viewBox="0 0 23 29" fill="#3A643B" xmlns="http://www.w3.org/2000/svg">
<path id="Vector" d="M22.3414 8.28583C22.2629 8.17837 22.1754 8.07869 22.08 7.98547L14.9395 0.911466C14.8454 0.816956 14.7447 0.730214 14.6363 0.652538C14.0913 0.227912 13.417 -0.00256363 12.7231 2.15127e-05H3.13636C1.40482 2.15127e-05 0 1.39176 0 3.10716V25.8929C0 27.6083 1.40482 29 3.13636 29H19.8636C21.5952 29 23 27.6083 23 25.8929V10.1812C23.0026 9.49372 22.77 8.82572 22.3414 8.28583ZM19.435 8.28583H14.6363V3.53182L19.435 8.28583ZM20.9091 25.893C20.9091 26.1674 20.7993 26.4315 20.6033 26.6257C20.4073 26.8199 20.1407 26.9287 19.8636 26.9287H3.13637C2.55875 26.9287 2.09092 26.4652 2.09092 25.8929V3.10725C2.09092 2.535 2.55875 2.07153 3.13637 2.07153H12.5455V8.28582C12.5455 8.83473 12.7663 9.36167 13.1583 9.75007C13.5504 10.1385 14.0823 10.3572 14.6364 10.3572H20.9091L20.9091 25.893ZM5.22727 12.4287H17.7727C18.3503 12.4287 18.8182 12.8922 18.8182 13.4644C18.8182 14.0366 18.3503 14.5001 17.7727 14.5001H5.22727C4.64964 14.5001 4.18181 14.0366 4.18181 13.4644C4.18181 12.8922 4.64964 12.4287 5.22727 12.4287ZM18.8182 17.6073C18.8182 17.8817 18.7084 18.1458 18.5124 18.34C18.3163 18.5342 18.0498 18.643 17.7727 18.643H5.22728C4.64966 18.643 4.18183 18.1795 4.18183 17.6072C4.18183 17.035 4.64966 16.5715 5.22728 16.5715H17.7727C18.0498 16.5715 18.3164 16.6803 18.5124 16.8745C18.7084 17.0687 18.8182 17.3328 18.8182 17.6073ZM14.6363 21.7501C14.6363 22.0246 14.5266 22.2887 14.3306 22.4829C14.1345 22.6771 13.8679 22.7858 13.5909 22.7858H5.22728C4.64966 22.7858 4.18183 22.3223 4.18183 21.7501C4.18183 21.1778 4.64966 20.7144 5.22728 20.7144H13.5909C13.868 20.7144 14.1345 20.8231 14.3306 21.0173C14.5266 21.2115 14.6363 21.4756 14.6363 21.7501Z" />
</svg>
