<svg width="22" height="20" viewBox="0 0 22 20" fill="#8D8D8D" xmlns="http://www.w3.org/2000/svg">
<path id="Vector" d="M11.1788 19.7409C8.68422 19.7409 3.18968 15.1349 1.2227 10.6C-0.168935 7.4335 0.167507 4.62685 2.18232 2.46771C3.30968 1.2204 4.89349 0.54847 6.62056 0.54847H6.66836C8.2999 0.572835 9.90707 1.17261 11.1543 2.2278C12.4016 1.17261 14.0332 0.572845 15.6403 0.54847C17.4152 0.524106 18.999 1.2204 20.1508 2.44333C22.1422 4.60248 22.4776 7.40912 21.1104 10.5756C19.1677 15.1348 13.6733 19.7409 11.1788 19.7409ZM6.62056 2.46771C5.42104 2.46771 4.34147 2.92314 3.57401 3.76281C2.11021 5.34657 1.91905 7.38585 2.97425 9.83264C4.86911 14.1987 9.88375 17.8217 11.1788 17.8217C12.4738 17.8217 17.4885 14.1987 19.3833 9.83264C20.4628 7.38585 20.2473 5.34666 18.7835 3.76281C17.9916 2.92314 16.8886 2.46771 15.6892 2.46771C14.2732 2.49207 12.8581 3.11526 11.8985 4.19483C11.7064 4.38694 11.4664 4.5069 11.1788 4.5069C10.8911 4.5069 10.6512 4.38695 10.459 4.19483C9.49942 3.11526 8.08436 2.46771 6.6683 2.46771H6.62056Z" />
</svg>
