<svg width="22" height="21" viewBox="0 0 22 21" fill="#8D8D8D"  xmlns="http://www.w3.org/2000/svg">
<path id="Vector" d="M16.889 7.71402e-05H4.44479C2.15719 7.71402e-05 0.296387 1.86088 0.296387 4.14848V12.4443C0.296387 14.7319 2.15719 16.5927 4.44479 16.5927H11.2744L15.1184 20.4367C15.3168 20.635 15.5822 20.741 15.8515 20.741C15.9856 20.741 16.1198 20.7148 16.2481 20.6623C16.636 20.5009 16.8888 20.1227 16.8888 19.7037V16.5926C19.1764 16.5926 21.0372 14.7318 21.0372 12.4442V4.1484C21.0372 1.86081 19.1766 7.71402e-05 16.889 7.71402e-05ZM18.9627 12.4443C18.9627 13.5886 18.0323 14.518 16.889 14.518H15.8516C15.279 14.518 14.8143 14.9827 14.8143 15.5553V17.2003L12.4363 14.8223C12.2428 14.6279 11.9784 14.519 11.7042 14.519H4.44476C3.30047 14.519 2.37106 13.5885 2.37106 12.4453V4.14845C2.37106 3.00416 3.30146 2.07475 4.44476 2.07475H16.889C18.0333 2.07475 18.9627 3.00515 18.9627 4.14845L18.9627 12.4443Z" />
</svg>
