<svg width="23" height="21" viewBox="0 0 23 21" fill="black" xmlns="http://www.w3.org/2000/svg">
<g id="Group">
<path id="Vector" d="M12 3C11.173 3 10.5 3.84115 10.5 4.87478V8.62523C10.5 9.65887 11.173 10.5 12 10.5C12.827 10.5 13.5 9.65885 13.5 8.62523V4.87478C13.5 3.84113 12.827 3 12 3Z" fill="black"/>
<path id="Vector_2" d="M13.5 13.4996C13.5 14.3286 12.8284 15 12 15C11.1716 15 10.5 14.3286 10.5 13.4996C10.5 12.6714 11.1716 12 12 12C12.8284 12 13.5 12.6714 13.5 13.4996Z" fill="black"/>
<path id="Vector_3" d="M18.5392 2.36571e-05H3.77362C1.69351 2.36571e-05 0 1.69254 0 3.77364V20.3435C0 20.8465 0.542642 21.1593 0.977295 20.9157L5.51495 18.3741H18.5382C20.6193 18.3741 22.3118 16.6816 22.3118 14.6005L22.3128 3.77362C22.3128 1.69259 20.6194 2.36571e-05 18.5392 2.36571e-05ZM21.0005 14.6014C21.0005 15.959 19.8968 17.0627 18.5392 17.0627H5.34421C5.23162 17.0627 5.1218 17.0913 5.02397 17.1467L1.31225 19.224V3.77375C1.31225 2.41624 2.41599 1.3125 3.7735 1.3125H18.5382C19.8957 1.3125 20.9994 2.41624 20.9994 3.77375L21.0005 14.6014Z" />
</g>
</svg>
