<svg width="20" height="20" viewBox="0 0 20 20" fill="#8D8D8D" xmlns="http://www.w3.org/2000/svg">
<path id="Vector" d="M17.6919 0.415114L1.33082 7.24706C0.716724 7.50258 0.344678 8.12123 0.402951 8.78918C0.461223 9.4661 0.949813 10.022 1.61322 10.1699L7.36425 11.452C8.01869 11.6 8.53866 12.1155 8.68658 12.7745L9.96857 18.526C10.1165 19.1895 10.6723 19.6782 11.3492 19.7364C11.394 19.7409 11.4388 19.7409 11.4881 19.7409C12.0978 19.7409 12.6536 19.3778 12.8912 18.8085L19.7225 2.44587C19.9645 1.86757 19.83 1.2041 19.3863 0.760297C18.9335 0.307524 18.2701 0.173037 17.6919 0.415114ZM11.5464 17.365L10.4348 12.38C10.1389 11.0486 9.08552 9.99508 7.75423 9.69921L2.7697 8.58745L17.8309 2.30242L11.5464 17.365Z" />
</svg>
