<svg width="22" height="23" viewBox="0 0 22 23" fill="black" xmlns="http://www.w3.org/2000/svg">
<g id="Group">
<path id="Vector" d="M15.6914 11.5015C15.6914 8.91479 13.5867 6.81006 11 6.81006C8.41328 6.81006 6.30859 8.91475 6.30859 11.5015C6.30859 14.0882 8.41328 16.1929 11 16.1929C13.5867 16.1929 15.6914 14.0882 15.6914 11.5015ZM8.12188 11.5015C8.12188 9.91499 9.41368 8.62319 11.0001 8.62319C12.5866 8.62319 13.8784 9.91499 13.8784 11.5015C13.8784 13.0894 12.5881 14.3797 11.0001 14.3797C9.41368 14.3797 8.12188 13.0879 8.12188 11.5015Z" fill="black"/>
<path id="Vector_2" fill-rule="evenodd" clip-rule="evenodd" d="M10.9962 22.5C11.2555 22.4692 11.9718 22.3441 12.7625 22.0905C13.5633 21.7022 14.2235 21.0631 14.6254 20.2548C16.0547 20.7368 17.6654 20.3908 18.7773 19.2788C19.8893 18.1682 20.2338 16.5546 19.7548 15.1269C21.1025 14.4546 22 13.0706 22 11.4992C22 9.9279 21.104 8.54392 19.7548 7.87307C20.2338 6.44527 19.8893 4.83312 18.7773 3.72124C17.6667 2.61072 16.0561 2.26323 14.6254 2.74521C13.9546 1.39597 12.5706 0.5 10.9992 0.5C9.4279 0.5 8.04241 1.39597 7.37307 2.74521C5.94526 2.26172 4.33312 2.61074 3.22124 3.72124C2.10922 4.83176 1.76474 6.44542 2.2437 7.87307C0.895965 8.54392 0 9.9279 0 11.4992C0 13.0706 0.895965 14.4546 2.2437 15.1269C1.76474 16.5547 2.10923 18.1669 3.22124 19.2788C4.33176 20.3908 5.94391 20.7383 7.37307 20.2548C8.04241 21.6025 9.42639 22.4985 10.9962 22.5ZM8.24656 18.1442C8.53365 18.2635 8.73913 18.5219 8.79202 18.8271C8.98085 19.9044 9.90855 20.687 10.9994 20.687C12.0888 20.687 13.0165 19.9044 13.2053 18.8271C13.2583 18.5204 13.4637 18.2635 13.7508 18.1442C14.0379 18.0263 14.3657 18.0611 14.6196 18.2409C15.514 18.8679 16.7227 18.7667 17.4948 17.9961C18.2654 17.2255 18.3681 16.0153 17.7396 15.1209C17.5613 14.8655 17.525 14.5392 17.6444 14.2521C17.7623 13.965 18.0206 13.7595 18.3258 13.7051C19.4031 13.5178 20.1857 12.5901 20.1857 11.4992C20.1857 10.4098 19.4031 9.48215 18.3258 9.2948C18.0206 9.24038 17.7638 9.03491 17.6444 8.74784C17.525 8.46076 17.5613 8.13441 17.7396 7.87906C18.3681 6.9846 18.2654 5.77437 17.4948 5.0038C16.7227 4.23172 15.514 4.1305 14.6196 4.75904C14.3657 4.93883 14.0364 4.97359 13.7508 4.85574C13.4637 4.73637 13.2582 4.47802 13.2053 4.17282C13.018 3.09552 12.0888 2.31289 10.9994 2.31289C9.90855 2.31289 8.98086 3.09552 8.792 4.17282C8.73909 4.47952 8.53362 4.73638 8.24655 4.85574C7.95947 4.97359 7.63161 4.94035 7.37777 4.75904C6.48181 4.13201 5.27459 4.23173 4.50251 5.0038C3.73194 5.77437 3.62921 6.9846 4.25775 7.87906C4.43603 8.13442 4.47229 8.46076 4.35293 8.74784C4.23508 9.03492 3.97673 9.24041 3.67152 9.2948C2.59423 9.48216 1.81159 10.4098 1.81159 11.4992C1.81159 12.5901 2.59423 13.5178 3.67152 13.7051C3.97672 13.7595 4.23357 13.965 4.35293 14.2521C4.4723 14.5392 4.43604 14.8655 4.25775 15.1209C3.62922 16.0153 3.73195 17.2255 4.50251 17.9961C5.27308 18.7667 6.48181 18.8679 7.37777 18.2409C7.5319 18.1321 7.71623 18.0762 7.89905 18.0762C8.0169 18.0762 8.13476 18.0989 8.24656 18.1442Z" />
</g>
</svg>
