<svg width="20" height="20" viewBox="0 0 20 20" fill="black" xmlns="http://www.w3.org/2000/svg">
<path id="Vector" d="M17.789 0.122119L0.96053 7.14923C0.328886 7.41206 -0.0537881 8.04837 0.00614883 8.73541C0.0660858 9.43166 0.568634 10.0034 1.25099 10.1556L7.16631 11.4743C7.83945 11.6265 8.37427 12.1567 8.52642 12.8346L9.84503 18.7504C9.99718 19.4329 10.5689 19.9354 11.2651 19.9954C11.3112 20 11.3573 20 11.408 20C12.035 20 12.6067 19.6265 12.8511 19.0409L19.8776 2.21089C20.1265 1.61607 19.9882 0.933649 19.5318 0.477163C19.0661 0.0114556 18.3837 -0.126874 17.789 0.122119ZM11.4679 17.5562L10.3245 12.4288C10.0202 11.0593 8.93676 9.97576 7.56743 9.67143L2.44051 8.52791L17.9319 2.06334L11.4679 17.5562Z" />
</svg>
