<svg width="23" height="22" viewBox="0 0 23 22" fill="black" xmlns="http://www.w3.org/2000/svg">
<g id="Group">
<path id="Vector" d="M13.2879 22.0001H0.765689C0.348283 22.0001 0 21.6518 0 21.2344C0 20.817 0.348283 20.4688 0.765689 20.4688H13.2879C13.7053 20.4688 14.0535 20.817 14.0535 21.2344C14.0535 21.6518 13.7053 22.0001 13.2879 22.0001Z" fill="black"/>
<path id="Vector_2" d="M11.7283 20.1087C11.534 20.1087 11.3383 20.0813 11.144 20.0108C10.6848 19.8582 10.3091 19.5373 10.1004 19.1069C10.017 18.9543 9.97522 18.7873 9.93348 18.6204L9.80826 17.9382C9.62695 16.8946 9.78087 15.795 10.253 14.8494L17.1402 1.18583C17.6685 0.127953 18.9768 -0.302475 20.0347 0.225793L21.2726 0.851902C22.3304 1.38017 22.7609 2.68849 22.2326 3.74636L15.3454 17.4099C14.8719 18.3556 14.0788 19.1356 13.1331 19.6078L12.507 19.9143C12.2566 20.0395 11.9788 20.1087 11.6996 20.1087L11.7283 20.1087ZM19.089 1.51974C18.8529 1.51974 18.6442 1.64496 18.532 1.86802L11.6448 15.5315C11.3109 16.185 11.2001 16.9507 11.3383 17.6603L11.4635 18.3425C11.547 18.5369 11.7414 18.6073 11.8666 18.5369L12.4927 18.2303C13.1462 17.9108 13.6888 17.3682 14.0227 16.7133L20.9099 3.0498C21.0625 2.74327 20.9373 2.3676 20.6321 2.21499L19.3942 1.58888C19.3108 1.54714 19.2129 1.51975 19.1164 1.51975L19.089 1.51974Z" />
</g>
</svg>
